<?xml version="1.0" standalone="no"?>
<!DOCTYPE svg PUBLIC "-//W3C//DTD SVG 20010904//EN"
 "http://www.w3.org/TR/2001/REC-SVG-20010904/DTD/svg10.dtd">
<svg version="1.0" xmlns="http://www.w3.org/2000/svg"
 width="2159.000000pt" height="2159.000000pt" viewBox="0 0 2159.000000 2159.000000"
 preserveAspectRatio="xMidYMid meet">
<metadata>
Created by potrace 1.14, written by Peter Selinger 2001-2017
</metadata>
<g transform="translate(0.000000,2159.000000) scale(0.100000,-0.100000)"
fill="#000000" stroke="none">
<path d="M8420 12234 c-739 -91 -1230 -665 -1230 -1439 0 -330 98 -645 280
-897 117 -162 330 -332 522 -416 453 -198 979 -152 1377 121 101 70 255 224
321 321 65 98 132 237 159 335 11 41 20 76 18 77 -4 4 -374 74 -390 74 -9 0
-18 -13 -22 -32 -4 -18 -25 -71 -46 -116 -111 -239 -308 -406 -576 -489 -81
-25 -102 -27 -253 -27 -190 0 -266 16 -409 84 -114 55 -193 113 -282 208 -324
346 -374 960 -111 1382 56 90 165 207 249 266 80 58 212 119 310 145 119 31
303 36 423 11 342 -71 607 -317 690 -640 11 -42 13 -44 43 -39 18 3 110 16
205 28 l173 23 -6 33 c-12 66 -57 188 -100 276 -173 346 -511 602 -910 689
-88 19 -352 32 -435 22z"/>
<path d="M14750 12190 c-98 -46 -134 -107 -128 -220 2 -65 7 -83 32 -119 98
-141 320 -129 398 22 27 53 30 166 6 212 -21 39 -64 83 -103 102 -50 26 -152
28 -205 3z"/>
<path d="M12592 10933 l3 -1248 26 -56 c47 -99 134 -162 264 -190 34 -7 129
-13 220 -13 l160 -1 0 165 0 165 -105 5 c-58 3 -115 11 -127 18 -55 31 -53
-27 -53 1237 l0 1165 -195 0 -195 0 2 -1247z"/>
<path d="M13582 10938 c3 -1399 -3 -1289 80 -1383 82 -93 184 -125 426 -132
l172 -6 0 172 0 171 -96 0 c-115 0 -159 16 -180 66 -12 28 -14 231 -14 1194
l0 1160 -195 0 -195 0 2 -1242z"/>
<path d="M15510 10800 l0 -1380 195 0 195 0 0 120 c0 66 1 120 3 120 1 0 38
-35 82 -78 94 -91 178 -143 295 -182 110 -37 191 -50 316 -50 392 0 727 210
899 564 222 457 106 1036 -267 1334 -232 184 -534 256 -837 200 -151 -28 -326
-119 -427 -224 -28 -30 -54 -54 -58 -54 -3 0 -5 227 -4 505 l3 505 -197 0
-198 0 0 -1380z m1208 285 c226 -53 411 -242 473 -483 27 -106 27 -280 -1
-387 -33 -133 -82 -219 -174 -311 -64 -63 -99 -90 -166 -123 -323 -158 -706
-35 -870 280 -108 207 -112 476 -12 676 144 284 437 420 750 348z"/>
<path d="M11120 11474 c-14 -2 -59 -9 -100 -15 -102 -15 -188 -43 -294 -95
-254 -125 -432 -350 -506 -639 -78 -304 -25 -665 132 -901 142 -213 330 -344
598 -415 98 -27 348 -37 458 -19 382 61 678 303 805 657 99 274 79 621 -50
880 -148 298 -441 499 -788 542 -86 10 -201 13 -255 5z m290 -379 c86 -23 189
-79 254 -137 230 -205 290 -588 138 -883 -51 -100 -174 -221 -273 -268 -233
-112 -520 -83 -717 72 -310 245 -317 810 -13 1082 64 58 191 122 271 138 30 6
64 13 75 15 37 9 209 -3 265 -19z"/>
<path d="M19904 11446 c-326 -53 -545 -232 -614 -502 -11 -43 -20 -110 -20
-151 l0 -73 194 0 193 0 6 65 c7 78 36 147 80 194 76 80 257 131 409 116 199
-19 329 -110 373 -259 16 -52 20 -156 8 -156 -47 0 -609 -76 -681 -91 -202
-44 -371 -124 -483 -227 -128 -119 -187 -239 -193 -397 -10 -232 102 -416 314
-518 143 -68 214 -82 405 -81 131 0 174 4 240 22 134 36 237 94 330 183 45 44
86 79 92 79 5 0 14 -15 21 -34 16 -43 100 -122 158 -147 72 -32 171 -49 292
-49 l112 0 0 164 0 163 -59 6 c-76 8 -109 24 -129 61 -15 28 -17 83 -19 516
-1 318 -6 506 -13 545 -53 275 -252 475 -548 551 -120 32 -341 41 -468 20z
m636 -1215 c0 -259 -143 -435 -410 -508 -90 -24 -293 -25 -372 0 -70 21 -136
70 -165 122 -29 51 -31 142 -4 200 40 88 160 165 316 205 73 18 508 76 598 79
l37 1 0 -99z"/>
<path d="M18610 11395 c-89 -25 -179 -75 -241 -137 l-59 -58 0 95 0 95 -195 0
-195 0 2 -982 3 -983 195 0 195 0 5 625 c6 680 4 661 65 780 82 160 245 230
470 202 52 -6 112 -18 135 -26 l40 -14 0 188 0 188 -47 17 c-67 25 -297 31
-373 10z"/>
<path d="M14654 11385 c-2 -5 -3 -449 -2 -985 l3 -975 193 -3 192 -2 0 818 c0
450 3 894 7 985 l6 166 -198 3 c-125 2 -199 -1 -201 -7z"/>
</g>
</svg>
